<?xml version="1.0" encoding="UTF-8" standalone="no"?>
<!-- Created with Inkscape (http://www.inkscape.org/) -->

<svg
   width="48"
   height="48"
   viewBox="0 0 48 48"
   version="1.1"
   id="svg1"
   inkscape:version="1.4.2 (ebf0e940, 2025-05-08)"
   sodipodi:docname="favicon.svg"
   xmlns:inkscape="http://www.inkscape.org/namespaces/inkscape"
   xmlns:sodipodi="http://sodipodi.sourceforge.net/DTD/sodipodi-0.dtd"
   xmlns="http://www.w3.org/2000/svg"
   xmlns:svg="http://www.w3.org/2000/svg">
  <sodipodi:namedview
     id="namedview1"
     pagecolor="#505050"
     bordercolor="#ffffff"
     borderopacity="1"
     inkscape:showpageshadow="false"
     inkscape:pageopacity="0"
     inkscape:pagecheckerboard="true"
     inkscape:deskcolor="#505050"
     inkscape:document-units="px"
     showborder="true"
     labelstyle="below"
     inkscape:zoom="10.946801"
     inkscape:cx="33.799828"
     inkscape:cy="20.828002"
     inkscape:window-width="2560"
     inkscape:window-height="1387"
     inkscape:window-x="2560"
     inkscape:window-y="25"
     inkscape:window-maximized="1"
     inkscape:current-layer="layer1" />
  <defs
     id="defs1" />
  <g
     inkscape:label="Layer 1"
     inkscape:groupmode="layer"
     id="layer1">
    <g
       id="g4"
       transform="matrix(1.0698884,0,0,1.0475031,0.99999919,-29.351675)">
	<g
   id="g3">
		<g
   id="g2">
			<g
   id="g1">
				<rect
   x="0"
   y="28.97526"
   class="st0"
   width="42.99514"
   height="43.913952"
   id="rect1"
   style="fill:#154273;stroke-width:0.789745"
   ry="3.870384" />


			</g>

		</g>

	</g>

</g>
    <path
       d="m 24.880159,33.370266 h -0.863108 v -2.360962 h 0.863108 z M 28.798203,22.957531 H 27.935098 V 20.59657 h 0.863105 z m -16.081022,-4.076 c -0.06814,0 -0.51105,0 -0.51105,0.08909 0,0.08909 0.20442,0.04455 0.51105,0.100221 0.692756,0.111367 0.965315,0.456601 1.453651,0.456601 0.44291,0 0.897176,-0.289552 0.715469,-0.924339 -0.03407,-0.100221 -0.09085,-0.07796 -0.102207,-0.01113 -0.06814,0.278416 -0.420197,0.445464 -0.794966,0.445464 -0.454266,0 -0.556475,-0.155913 -1.271945,-0.155913 z m -4.7811518,2.360962 c 0.079493,0.100231 0.8971756,1.147072 -0.3634133,1.547989 -0.056783,0.02227 -0.079497,0.06682 0.011356,0.111366 0.9312464,0.378645 1.3855118,-0.322962 1.3855118,-0.322962 0.465622,1.046842 -0.2498462,1.625946 -0.2498462,1.625946 0.1022112,0.189322 0.5451182,0.501148 1.2151615,0.657061 0.249848,-0.133639 0.61326,-0.389782 0.760895,-0.7907 0,0 0.181707,0.4566 0.01135,0.890929 1.896561,0.16705 2.566604,-1.31412 4.031612,-1.046841 0.04543,0.01113 0.05679,-0.02228 0.05679,-0.06683 0,-0.913202 -0.567833,-2.594831 -2.384897,-2.940065 -1.805709,-0.345236 -1.317372,-1.069117 -1.317372,-1.069117 0.760897,-0.03341 1.203805,0.289553 1.203805,0.289553 0.13628,-0.222733 -0.05679,-0.467738 -0.05679,-0.467738 0.06814,-0.08909 0.113566,-0.389781 0.113566,-0.389781 -0.851749,0 -1.078882,-0.178186 -1.078882,-0.178186 -0.13628,-0.501148 0.227133,-1.202754 1.499078,-0.445465 0.317986,-0.278415 0.295273,-0.701607 0.295273,-0.701607 0.09085,-0.04455 0.158994,-0.189322 0.158994,-0.256142 0,-0.211595 -1.0221,-0.768427 -1.283302,-0.835246 -0.06814,-0.300688 -0.454267,-0.735016 -1.658072,-0.579104 -0.567832,0.06682 -0.9766723,-0.07796 -0.7836093,-0.400918 0.03407,-0.05568 -0.06814,-0.06682 -0.124924,-0.01113 -0.136279,0.13364 -0.30663,0.490011 0.181707,0.735016 0.5451193,0.267279 0.5791893,0.812973 0.5905463,0.890929 0.01135,0.111366 -0.13628,0.122504 -0.158992,0.01113 -0.249847,-0.913204 -1.5217928,-1.102525 -2.2713327,-0.623651 0.045427,0.490012 0.5791899,0.812973 0.8744623,0.812973 0.1703499,0 0.3974831,-0.167048 0.3974831,-0.389781 0,-0.111367 0.05679,-0.10022 0.09086,-0.01113 0.124923,0.322963 -0.3634125,0.991159 -1.0902382,0.590241 -0.7381828,0.72388 -0.4429098,1.625946 -0.3747699,1.948908 0.1362798,0.59024 -0.1589932,1.169345 -0.7041125,0.902066 -0.022714,-0.01113 -0.056783,-0.02228 -0.056783,0.04455 0,0.367506 0.4883361,0.790698 1.0788825,0.467737 z m 4.0656828,-3.65281 c -0.3407,0.378645 -0.908533,0.289552 -1.044813,-0.334098 0.71547,-0.03342 1.022099,0.03341 1.044813,0.334098 z m 22.031909,1.44776 c -0.374769,0 -0.726826,-0.155912 -0.794965,-0.445465 -0.01135,-0.06682 -0.07949,-0.100221 -0.102207,0.01113 -0.181707,0.623652 0.272559,0.924339 0.715469,0.924339 0.488336,0 0.760895,-0.345234 1.453652,-0.4566 0.30663,-0.05568 0.511049,0 0.511049,-0.100221 0,-0.08909 -0.454266,-0.08909 -0.511049,-0.08909 -0.71547,0 -0.806323,0.155912 -1.271945,0.155912 z m 7.143336,1.737313 c 0,-0.06683 -0.02271,-0.05568 -0.05679,-0.04455 -0.545119,0.267279 -0.840393,-0.311825 -0.704113,-0.902066 0.07949,-0.334098 0.374769,-1.225027 -0.37477,-1.948907 -0.726826,0.412055 -1.215162,-0.267278 -1.090239,-0.590241 0.03407,-0.08909 0.09086,-0.100221 0.09086,0.01113 0,0.222733 0.238489,0.389781 0.397482,0.389781 0.295274,0 0.829036,-0.322961 0.874463,-0.812973 -0.749539,-0.478874 -2.021484,-0.289553 -2.271331,0.623651 -0.03407,0.111366 -0.17035,0.100221 -0.158994,-0.01113 0,-0.07796 0.03408,-0.62365 0.590548,-0.890929 0.499692,-0.245005 0.317986,-0.601376 0.181706,-0.735017 -0.05679,-0.05568 -0.158993,-0.04455 -0.124924,0.01113 0.193064,0.322962 -0.215776,0.467738 -0.78361,0.400917 -1.192448,-0.155912 -1.58993,0.278416 -1.658071,0.579104 -0.261203,0.06682 -1.283301,0.623652 -1.283301,0.835247 0,0.06682 0.05679,0.211596 0.158993,0.256142 0,0 -0.02271,0.423192 0.295273,0.701607 1.271944,-0.757291 1.624001,-0.04455 1.499078,0.445465 0,0 -0.227134,0.178186 -1.078882,0.178186 0,0 0.04543,0.300688 0.113567,0.38978 0,0 -0.193064,0.245006 -0.05679,0.467738 0,0 0.44291,-0.322961 1.203805,-0.289552 0,0 0.488337,0.72388 -1.317371,1.069116 -1.805707,0.345235 -2.384897,2.015727 -2.384897,2.940066 0,0.04455 0.02271,0.06682 0.05679,0.06682 1.465009,-0.267279 2.135052,1.225027 4.031612,1.04684 -0.17035,-0.434328 0.01135,-0.890928 0.01135,-0.890928 0.147638,0.389781 0.51105,0.657061 0.760896,0.7907 0.670043,-0.144777 1.112952,-0.467739 1.215162,-0.657061 0,0 -0.71547,-0.579104 -0.249846,-1.625946 0,0 0.454266,0.701607 1.385512,0.322962 0.07949,-0.03342 0.06814,-0.08909 0.01135,-0.111366 -1.260588,-0.400918 -0.44291,-1.436623 -0.363413,-1.547989 0.590546,0.322961 1.078882,-0.100232 1.078882,-0.467739 z m -4.111109,-3.519171 c -0.13628,0.62365 -0.704113,0.712743 -1.044812,0.334098 0.03407,-0.300689 0.340699,-0.367509 1.044812,-0.334098 z M 23.687709,6.7983045 c 0,0.1559125 0.06814,0.2895519 0.124923,0.3675083 0.113566,0.1559127 0.09086,0.2450055 0.04543,0.289552 -0.05679,0.055683 -0.13628,0.06682 -0.295273,-0.044547 -0.07949,-0.055683 -0.215778,-0.1225028 -0.37477,-0.1225028 -0.27256,0 -0.408839,0.1781858 -0.408839,0.3229619 0,0.1559126 0.136279,0.3229619 0.408839,0.3229619 0.158992,0 0.295272,-0.06682 0.37477,-0.1225029 0.158993,-0.1113661 0.249846,-0.089093 0.295273,-0.044546 0.05679,0.055683 -0.02271,0.5902406 -0.09085,1.0134321 -0.454266,0.089093 -0.670043,0.4454646 -0.670043,0.6570603 0,0.534556 0.579189,0.8463807 0.931246,1.0245667 0.340699,-0.178186 0.931245,-0.4900107 0.931245,-1.0245667 0,-0.2115957 -0.215776,-0.5679674 -0.670043,-0.6570603 -0.05679,-0.4231915 -0.13628,-0.9688857 -0.09086,-1.0134321 0.05679,-0.055684 0.136279,-0.06682 0.295273,0.044546 0.07949,0.055684 0.215777,0.1225029 0.374769,0.1225029 0.27256,0 0.40884,-0.1781859 0.40884,-0.3229619 0,-0.1559126 -0.13628,-0.3229619 -0.40884,-0.3229619 -0.158992,0 -0.295272,0.066819 -0.374769,0.1225028 -0.158994,0.1113661 -0.249847,0.089093 -0.295273,0.044547 -0.05679,-0.055684 -0.06814,-0.1336393 0.04543,-0.289552 0.05679,-0.077957 0.124923,-0.2115958 0.124923,-0.3675083 0,-0.2672788 -0.181706,-0.4009182 -0.329342,-0.4009182 -0.181706,0 -0.352057,0.1336394 -0.352057,0.4009182 z m 0.329342,3.9757705 c -0.363412,0 -0.670042,0.289551 -0.670042,0.65706 0,0.356371 0.295274,0.65706 0.670042,0.65706 0.363413,0 0.670043,-0.289551 0.670043,-0.65706 0,-0.367509 -0.30663,-0.65706 -0.670043,-0.65706 z m 0,6.269913 c 2.668815,0 4.167894,0.501149 4.167894,0.501149 0.01135,-1.314122 0,-2.060275 0.772251,-1.948908 -0.420196,-1.113662 1.396869,-1.54799 1.396869,-2.984613 0,-0.946612 -0.681399,-1.057978 -0.885819,-1.057978 -0.601903,0 -0.51105,0.389781 -1.022099,0.389781 -0.06814,0 -0.124923,-0.01113 -0.124923,0.03341 0,0.167049 0.147637,0.445465 0.37477,0.445465 0.317986,0 0.317986,-0.311825 0.556476,-0.311825 0.102207,0 0.249847,0.07796 0.249847,0.400917 0,0.612514 -0.408841,1.291847 -0.897176,1.826405 -0.113567,-0.155913 -0.261204,-0.245006 -0.44291,-0.245006 -0.283916,0 -0.533763,0.289553 -0.533763,0.65706 0,0.13364 0.02271,0.23387 0.06814,0.345237 -0.158995,0.08909 -0.30663,0.133639 -0.408841,0.133639 -0.215775,0 -0.545119,-0.08909 -0.545119,-0.556831 0,-1.046843 1.430939,-1.971181 1.430939,-3.296439 0,-0.634786 -0.431552,-1.269574 -1.328728,-1.269574 -0.965317,0 -0.78361,0.868656 -1.624003,0.868656 -0.03408,0 -0.06814,0.01113 -0.06814,0.04455 0,0.05568 0.147636,0.534558 0.579189,0.534558 0.465622,0 0.590546,-0.790699 0.999386,-0.790699 0.158993,0 0.386126,0.08909 0.386126,0.623649 0,0.412056 -0.20442,1.080252 -0.51105,1.726176 -0.113566,-0.111367 -0.261203,-0.189322 -0.420196,-0.189322 -0.363413,0 -0.61326,0.345234 -0.61326,0.746152 0,0.256143 0.102207,0.501148 0.283917,0.668197 -0.215776,0.26728 -0.431552,0.478875 -0.71547,0.478875 -0.57919,0 -0.829035,-0.322962 -0.829035,-0.668197 0,-0.378645 0.704113,-0.512284 0.704113,-1.113662 0,-0.400919 -0.261203,-0.634787 -0.522407,-0.634787 -0.27256,0 -0.420195,0.178186 -0.442909,0.178186 -0.03408,0 -0.17035,-0.178186 -0.44291,-0.178186 -0.261203,0 -0.522406,0.222733 -0.522406,0.634787 0,0.59024 0.704112,0.735017 0.704112,1.113662 0,0.345235 -0.249845,0.668197 -0.829035,0.668197 -0.295273,0 -0.511049,-0.211595 -0.715469,-0.478875 0.181707,-0.167049 0.283916,-0.412054 0.283916,-0.668197 0,-0.412054 -0.261203,-0.746152 -0.61326,-0.746152 -0.17035,0 -0.317986,0.07796 -0.420196,0.189322 -0.295273,-0.645924 -0.511049,-1.31412 -0.511049,-1.726176 0,-0.534557 0.227134,-0.623649 0.386126,-0.623649 0.40884,0 0.545119,0.790699 0.999385,0.790699 0.431553,0 0.57919,-0.478875 0.57919,-0.534558 0,-0.03341 -0.03407,-0.04455 -0.06814,-0.04455 -0.840393,0 -0.658686,-0.868656 -1.624002,-0.868656 -0.897176,0 -1.328729,0.634788 -1.328729,1.269574 0,1.325258 1.430938,2.249596 1.430938,3.296439 0,0.467738 -0.329343,0.556831 -0.545119,0.556831 -0.113567,0 -0.249846,-0.05568 -0.408839,-0.133639 0.04543,-0.111367 0.06814,-0.211597 0.06814,-0.345237 0,-0.367507 -0.249847,-0.65706 -0.533764,-0.65706 -0.181706,0 -0.329342,0.08909 -0.442909,0.245006 -0.488336,-0.523421 -0.897175,-1.213891 -0.897175,-1.826405 0,-0.311825 0.147635,-0.400917 0.249846,-0.400917 0.23849,0 0.23849,0.311825 0.556476,0.311825 0.23849,0 0.37477,-0.289553 0.37477,-0.445465 0,-0.04455 -0.06814,-0.03341 -0.124923,-0.03341 -0.51105,0 -0.420197,-0.389781 -1.0221,-0.389781 -0.20442,0 -0.885819,0.111366 -0.885819,1.057978 0,1.44776 1.817066,1.882088 1.396869,2.984613 0.772253,-0.111367 0.760896,0.623651 0.772253,1.948908 -0.06814,0 1.430939,-0.501149 4.099752,-0.501149 z m -4.88336,1.948908 c -0.726827,0.155913 -1.249233,0.300689 -1.476366,0.367509 0.01135,-0.311825 0.13628,-0.601377 0.420196,-0.668197 0.03407,-0.01113 0.04543,-0.05568 0.01135,-0.07796 -0.64733,-0.423192 -0.988029,0.389782 -0.999386,0.412054 -0.227133,-0.02228 -0.57919,0.05568 -0.57919,0.356372 0,0.913202 -2.112337,1.41435 -2.61203,1.48117 0.863106,0.322961 1.226519,1.392077 1.226519,1.392077 0.624615,-0.612515 1.362799,-1.158209 1.521791,-1.158209 0.170351,0 0.227134,0.200459 0.238491,0.322962 0,0.04455 0.04543,0.05568 0.06814,0.02228 0.329343,-0.478875 0.17035,-0.590241 0.147637,-0.735017 -0.02271,-0.111366 0.01135,-0.534558 0.488337,-0.478874 v 6.058318 l -0.249847,0.04455 c -0.113567,0.02227 -1.010743,-0.735016 -2.055554,-1.436624 -1.033456,-0.701606 -1.589933,-0.278415 -2.771024,0.345235 -1.544506,0.82411 -3.1003673,0.07796 -3.1003673,0.07796 -1.3287286,0.935476 -1.7829948,3.630536 -1.7829948,3.630536 -0.2612031,0.111367 -0.7041127,0.233869 -1.1243089,0.233869 -1.0107422,0 -1.2038053,-0.601377 -1.2038053,-0.968886 0,-1.536851 1.9647012,-2.193912 1.9647012,-3.708492 0,-0.367508 -0.1703498,-1.859815 -2.0555544,-1.859815 H 3.5182901 c -0.7041125,0 -0.885819,-0.501147 -0.9766722,-0.69047 -0.034071,-0.06682 -0.1022101,-0.02228 -0.079497,0.03342 0.056783,0.122502 -0.079497,0.322961 -0.079497,0.701606 0,0.612514 0.3634129,0.980022 1.0561689,0.980022 0.3179863,0 0.6019027,-0.08909 0.7041126,-0.144775 0.068139,-0.03341 0.1022101,0.02227 0.068139,0.05568 -0.2952731,0.345235 -0.3179864,0.980023 -0.2044198,1.135935 0.03407,0.03342 0.06814,0.02228 0.06814,0 0.1703498,-0.645923 0.7836092,-1.269574 1.6240016,-1.269574 1.0220989,0 1.0220989,0.857519 1.0220989,1.057978 0,1.236164 -2.2145477,2.13823 -2.2145477,3.830996 0,1.726176 1.8511348,2.093683 2.9300169,1.815269 -0.068141,1.726174 -2.0782678,2.305278 -2.135051,1.080252 0,-0.05568 -0.045427,-0.07796 -0.079497,0 -0.2498465,0.612512 -0.1589932,1.14707 0.624616,1.314119 0.056784,0.01113 0.022714,0.04455 -0.022714,0.07796 -0.7608959,0.501147 -0.3406997,2.405509 -0.3066299,2.96234 0.056783,0.801835 -0.7608957,0.712743 -0.8290356,0.69047 -0.034071,-0.01113 -0.06814,0 -0.011356,0.06682 0.5791895,0.69047 1.2946587,0.05568 1.2946587,0.05568 0.5451194,0.167048 0.2044198,0.62365 -0.1589932,0.857519 -0.056783,0.03342 -0.056783,0.07796 0.011356,0.07796 0.079497,0 0.919889,0.07796 1.0675255,-0.579104 0.3747694,0.434327 0.9198893,0.278415 1.0334552,0.222733 0.1589937,-0.07796 0.9426024,-0.356372 1.0220997,0.501147 0,0.06682 0.04542,0.02227 0.06814,-0.01113 0.590546,-0.735016 -0.04542,-1.180483 -0.3974831,-1.236164 0.03407,-0.04455 0.4996931,-0.423192 0.9312461,0.111365 0.03407,0.03342 0.05679,0.04455 0.05679,-0.03341 0.04543,-0.924338 -0.7154701,-1.013431 -1.2151626,-0.612513 -0.022717,-0.100232 -0.1930639,-0.612515 0.5564756,-0.601378 0.02272,0 0.05679,-0.02226 0.01135,-0.06682 -0.5791887,-0.601377 -1.067525,-0.05568 -1.1697357,0.07796 -0.2612028,0.300689 -0.9085322,0.178186 -0.9653155,0.178186 0.2044198,-3.218481 3.0890115,-2.082547 3.4864935,-3.641673 0.02271,-0.07796 0.05679,-0.05568 0.06814,-0.02228 0.113567,0.378646 1.090241,0.434329 1.271947,-0.311825 0.01135,-0.04455 0,-0.07796 -0.03408,-0.04455 -0.840392,0.82411 -2.7255971,-1.737311 -0.147636,-3.819859 2.191834,-1.770722 4.167892,-0.7907 4.906074,-0.20046 0.03408,0.256143 -0.113566,0.345236 -0.215775,0.367509 -0.03408,0.01113 -0.04543,0.04455 0.01135,0.06682 0.204419,0.07796 0.499693,0.05568 0.647329,-0.133639 0.47698,0.322961 0.06814,0.735016 -0.124923,0.846382 -0.04543,0.03342 -0.02271,0.05568 0.01135,0.06682 0.431552,0.07796 0.783608,-0.356372 0.806322,-0.601377 l 0.06814,0.04455 v 1.826405 c 0,2.605968 3.066297,2.962339 6.427868,5.16739 3.361569,-2.205051 6.427867,-2.572559 6.427867,-5.16739 v -1.826425 l 0.06814,-0.04455 c 0.02271,0.245006 0.37477,0.679334 0.806323,0.601378 0.04543,-0.01113 0.05679,-0.03341 0.01135,-0.06683 -0.193064,-0.111365 -0.590546,-0.523419 -0.124924,-0.846382 0.13628,0.189323 0.431554,0.211596 0.64733,0.13364 0.05679,-0.02228 0.04543,-0.05568 0.01135,-0.06683 -0.102207,-0.03341 -0.261202,-0.111366 -0.215776,-0.367509 0.749539,-0.579103 2.714239,-1.570262 4.906073,0.200459 2.566605,2.082548 0.681401,4.643969 -0.147635,3.819859 -0.03408,-0.03341 -0.04543,0 -0.03408,0.04455 0.181706,0.757291 1.158379,0.701607 1.271946,0.311825 0.01135,-0.03341 0.04543,-0.05568 0.06814,0.02228 0.397483,1.559126 3.29343,0.423193 3.486493,3.641673 -0.05679,0.01113 -0.704112,0.122504 -0.965315,-0.178185 -0.113567,-0.13364 -0.590546,-0.679334 -1.169735,-0.07796 -0.03408,0.03341 0,0.06682 0.01135,0.06682 0.74954,-0.02226 0.590546,0.501148 0.556476,0.601378 -0.499692,-0.400918 -1.260588,-0.322963 -1.215162,0.612515 0,0.07796 0.03408,0.06682 0.05679,0.03341 0.431553,-0.534558 0.897176,-0.144777 0.931246,-0.111367 -0.352057,0.05568 -0.988029,0.501148 -0.397484,1.236165 0.02271,0.03341 0.05679,0.07796 0.06814,0.01113 0.07949,-0.868655 0.863106,-0.579104 1.022099,-0.501146 0.113566,0.05568 0.658685,0.211595 1.033456,-0.222733 0.147636,0.65706 0.988028,0.579104 1.067525,0.579104 0.05679,0 0.06814,-0.04455 0.01135,-0.07796 -0.363413,-0.233868 -0.692756,-0.690469 -0.158994,-0.857519 0,0 0.71547,0.634787 1.29466,-0.05568 0.04543,-0.06682 0.02271,-0.07796 -0.01135,-0.06682 -0.06814,0.02228 -0.885819,0.122503 -0.829034,-0.69047 0.03406,-0.55683 0.454265,-2.461192 -0.317989,-2.940066 -0.04542,-0.03341 -0.07949,-0.05568 -0.02271,-0.07796 0.783608,-0.167049 0.88582,-0.701607 0.624616,-1.314119 -0.03407,-0.07796 -0.07949,-0.06682 -0.07949,0 -0.05679,1.236163 -2.066911,0.645922 -2.135052,-1.080252 1.078883,0.267278 2.930018,-0.100221 2.930018,-1.815269 0,-1.692766 -2.214548,-2.605968 -2.214548,-3.830996 0,-0.211595 0,-1.057978 1.022098,-1.057978 0.840393,0 1.453652,0.612514 1.624003,1.269574 0.01135,0.03342 0.04543,0.04455 0.06814,0 0.124924,-0.155912 0.102207,-0.801836 -0.204419,-1.135935 -0.03407,-0.03341 0,-0.08909 0.06814,-0.05568 0.09086,0.05568 0.386127,0.144775 0.704113,0.144775 0.6814,0 1.056168,-0.367508 1.056168,-0.980022 0,-0.389781 -0.136279,-0.579104 -0.07949,-0.701606 0.02271,-0.05568 -0.04543,-0.100221 -0.07949,-0.02228 -0.102207,0.189322 -0.272559,0.690471 -0.976672,0.690471 h -1.692142 c -1.885204,0 -2.055554,1.492306 -2.055554,1.859814 0,1.51458 1.964701,2.17164 1.964701,3.708493 0,0.356371 -0.181706,0.968886 -1.203806,0.968886 -0.420195,0 -0.851748,-0.111367 -1.124308,-0.23387 0,0 -0.454266,-2.69506 -1.782995,-3.630535 0,0 -1.555862,0.746153 -3.100366,-0.07796 -1.181092,-0.62365 -1.737568,-1.046841 -2.771024,-0.345234 -1.033456,0.701607 -1.941988,1.458897 -2.044198,1.436623 l -0.249846,-0.04455 v -6.058318 c 0.476978,-0.04455 0.511049,0.367506 0.488335,0.478873 -0.02271,0.144777 -0.181706,0.256142 0.147637,0.735017 0.02271,0.03342 0.06814,0.02227 0.06814,-0.02228 0.01135,-0.122502 0.07949,-0.322961 0.238489,-0.322961 0.158993,0 0.897176,0.545694 1.521793,1.158208 0,0 0.363412,-1.069116 1.226517,-1.392077 -0.488336,-0.07796 -2.61203,-0.579105 -2.61203,-1.481171 0,-0.300687 -0.352056,-0.378644 -0.57919,-0.356371 -0.01135,-0.02227 -0.352055,-0.835246 -0.999386,-0.412054 -0.03406,0.02227 -0.02271,0.06682 0.01135,0.07796 0.283915,0.06682 0.408839,0.356372 0.420195,0.668197 -0.613259,-0.189322 -3.248003,-0.913203 -6.359726,-0.913203 -1.510435,0 -2.907304,0.167049 -4.020255,0.367509 v 2.10482 h -0.840394 v -1.960044 0 m -5.746454,21.515951 c -0.227134,-0.08909 -0.386126,-0.233868 -0.386126,-0.534557 v -1.302984 c -0.386128,-0.13364 -1.419583,-0.52342 -3.4978512,-0.52342 -1.7262113,0 -2.2713306,0.378644 -2.2940439,0.512283 l -0.4542492,2.483485 c 0,0 0.7041126,-0.62365 3.2025774,-0.467737 3.0208699,0.189323 6.1439489,1.937772 6.1439489,0.07796 v -1.09139 c -2.37354,0 -2.714239,0.735017 -2.714239,0.846383 z m 18.55679,-0.846363 v 1.09139 c 0,1.859815 3.123079,0.111366 6.143949,-0.07796 2.498465,-0.155913 3.202578,0.467737 3.202578,0.467737 l -0.454268,-2.483462 c -0.02271,-0.133639 -0.567831,-0.512283 -2.294043,-0.512283 -2.078268,0 -3.12308,0.38978 -3.49785,0.52342 v 1.302985 c 0,0.300689 -0.147635,0.445464 -0.386126,0.534557 -0.01135,-0.111366 -0.352056,-0.846382 -2.71424,-0.846384 z m -7.926946,-1.124798 c 4.860649,0 9.789437,0.245006 10.436767,0.968887 0.05679,0.05568 0.06814,0 0.06814,-0.04455 v -2.528007 c 0,-0.735018 -5.087781,-1.169345 -10.504906,-1.169345 -5.417123,0 -10.504905,0.423191 -10.504905,1.169345 v 2.528011 c 0,0.04455 0.02271,0.100221 0.06814,0.04455 0.64733,-0.723881 5.576119,-0.968887 10.436766,-0.968887 z m -4.326884,-11.905041 -0.488336,-0.122503 -0.04543,0.05568 -0.567833,-0.245006 h 0.511048 c 0.04543,0 0.04543,-0.03342 0.02271,-0.05568 l -0.431553,-0.423191 c 0,0 0.227133,0.08909 0.567833,0.200459 0.03408,0.01113 0.05679,-0.01113 0.03408,-0.03342 -0.158994,-0.233869 -0.374771,-0.534557 -0.374771,-0.534557 0,0 0.454266,0.300688 0.556477,0.367508 0.03408,0.02228 0.05679,0 0.04543,-0.03342 -0.124926,-0.300671 -0.261206,-0.634769 -0.261206,-0.634769 l 0.499692,0.467737 c 0.02271,0.02227 0.04543,0.01113 0.04543,-0.02228 -0.04543,-0.222732 -0.13628,-0.634787 -0.13628,-0.634787 l 0.37477,0.534557 c 0.02271,0.03341 0.04543,0.02228 0.04543,-0.01113 0,-0.100221 0.01135,-0.579105 0.01135,-0.579105 0,0 0.158992,0.345235 0.23849,0.534558 0.01135,0.03341 0.04543,0.03341 0.06814,-0.01113 0.02271,-0.05568 0.193062,-0.445464 0.193062,-0.445464 l 0.02271,0.601376 -0.07949,0.01113 -0.102207,0.723881 c 0.738184,-0.16705 1.646715,-1.403214 2.350829,-1.403214 0.829034,0 1.135665,0.957748 2.680171,0.467738 0.386125,0.567967 0.522405,1.057978 0.670041,1.737312 0.590547,0.545694 1.430939,0.367508 1.430939,-0.211596 0,-0.779563 -0.874463,-0.935475 -0.874463,-1.748449 0,-0.367507 0.261204,-0.890928 0.976672,-0.890928 0.37477,0 0.931247,0.155912 1.249233,0.155912 0.374769,0 0.454266,-0.267279 0.499693,-0.378645 0.03407,-0.07796 0.136279,-0.05568 0.124922,0.01113 -0.01135,0.07796 0.04543,0.178185 0.04543,0.356371 0,0.512286 -0.772252,0.579105 -0.863105,0.523422 -0.03407,-0.02228 -0.06814,0.01113 -0.03407,0.03341 0.113566,0.08909 0.09086,0.400918 -0.04543,0.59024 -0.01135,0.02228 -0.03408,0.02228 -0.04543,0 -0.07949,-0.367508 -0.522406,-0.82411 -0.919889,-0.82411 -0.147637,0 -0.431552,0.07796 -0.431552,0.412056 0,0.467737 0.953958,0.890928 0.953958,1.848677 0,1.002297 -1.010743,1.236164 -2.032841,0.991159 0.03407,0.946613 1.476365,1.51458 1.510435,0.835246 0,-0.04455 0.02271,-0.02228 0.04543,0 0.215776,0.289552 0.113567,0.512285 -0.158992,0.62365 0.249845,0.111367 0.295272,0.612515 0.374768,0.902066 0.113567,0.445464 0.590547,0.20046 0.613261,0.189323 0.02271,-0.01113 0.03407,0 0.02271,0.02228 -0.181707,0.467737 -0.670043,0.289551 -0.670043,0.289551 -0.249846,0.178186 0.05679,0.334099 0.283917,0.400918 0.03407,0.01113 0.03407,0.03341 0,0.04455 -0.17035,0.05568 -0.533763,0.167049 -0.704114,-0.122503 -0.124922,0.311825 -0.397482,0.300689 -0.499692,0.300689 -0.181706,0 -0.306629,0.189322 -0.261203,0.434329 0,0.02227 -0.01135,0.03341 -0.03408,0.01113 -0.442909,-0.289552 -0.193062,-0.62365 -0.01135,-0.712743 -0.03408,-0.02228 -0.3407,-0.144776 -0.465623,0.211596 -0.01135,0.02227 -0.02271,0.03342 -0.03407,0 -0.193064,-0.501147 0.227133,-0.657061 0.533763,-0.523421 -0.02271,-0.06683 -0.181707,-0.322963 -0.579189,-0.23387 -0.02271,0 -0.03408,0 -0.02271,-0.02228 0.06814,-0.155913 0.261204,-0.378645 0.624616,-0.155913 0.181707,0.111367 0.511051,-0.05568 0.533764,-0.06682 -0.64733,-1.258437 -1.896561,-0.200459 -2.180479,-1.191618 0,-0.02228 -0.03406,-0.03341 -0.04543,0.01113 -0.06814,0.211595 -0.613259,0.222732 -0.71547,-0.189323 -0.01135,-0.03341 0,-0.03341 0.02271,-0.01113 0.07949,0.07796 0.249847,0.155912 0.47698,-0.167051 0.147635,-0.211596 0.170348,-0.490011 0.170348,-0.690469 0,-0.768427 -0.783608,-2.049138 -1.99877,-2.049138 -0.772254,0 -1.601288,0.289552 -2.214549,0.735017 l 0.567834,0.133639 c -0.05679,0.567967 -0.61326,0.902066 -1.124308,0.75729 l 0.09085,-0.645925 c -0.09085,0.02228 -0.317986,0.100232 -0.431553,0.267279 -0.01135,0.01113 -0.02271,0.01113 -0.03408,0 -0.102207,-0.367507 0.20442,-0.55683 0.30663,-0.601376 0.01135,-0.01113 0.01135,-0.01113 -0.01135,-0.01113 -0.272559,-0.01113 -0.431553,0.189322 -0.476979,0.256141 -0.01135,0.01113 -0.02271,0.01113 -0.02271,0 -0.05679,-0.08909 -0.102207,-0.278414 0.03408,-0.412054 z m 1.69214,4.37669 c -0.215775,0.267279 -0.408839,0.01113 -0.704111,0.01113 -0.27256,0 -0.317986,0.222732 -0.317986,0.311825 0,0.01113 -0.01135,0.02228 -0.02271,0 -0.30663,-0.412054 0.03407,-0.634786 0.23849,-0.668196 -0.03408,-0.03341 -0.329343,-0.222732 -0.522407,0.04455 -0.01135,0.02227 -0.03406,0.01113 -0.03406,-0.01113 -0.01135,-0.512284 0.397482,-0.545695 0.670043,-0.322961 0.04543,-0.189323 -0.07949,-0.322963 -0.295275,-0.334099 -0.02271,0 -0.03407,-0.02228 -0.02271,-0.03342 0.09085,-0.100221 0.181706,-0.144776 0.272559,-0.144776 0.283917,0 0.329343,0.356371 0.51105,0.356371 0.283917,0 0.681399,-0.378645 0.726826,-0.412055 -0.01135,-0.02228 -0.283916,-0.735017 -0.227134,-1.169345 0,-0.02227 -0.01135,-0.02227 -0.02271,-0.01113 -0.13628,0.07796 -0.488336,0.07796 -0.488336,-0.345235 0,-0.03341 0.01135,-0.03341 0.03408,-0.01113 0.147635,0.211595 0.397483,-0.02227 0.522405,-0.167049 0.136281,-0.144776 0.85175,-1.158208 1.794353,-1.158208 0.204419,0 0.476978,0.111366 0.692754,0.256142 -0.329342,0.389781 0,0.768426 0.23849,0.72388 0.03406,0 0.03406,0.02228 0.01135,0.03342 -1.260589,0.467738 -1.817065,0.645924 -1.817065,1.681629 0,0.534558 0.193062,0.835246 0.511048,0.768426 0.02271,-0.01113 0.03408,0 0.01135,0.02228 -0.113567,0.13364 -0.249847,0.178187 -0.363413,0.178187 -0.261203,0 -0.30663,-0.144776 -0.44291,-0.144776 -0.147637,0 -0.613259,0.267279 -0.613259,0.501147 0,0.08909 0.05679,0.20046 0.215776,0.311825 0.01135,0.01113 0,0.01113 0,0.02228 -0.102207,0.03341 -0.465623,0.05568 -0.556476,-0.289552 z m 3.316145,-10.03409 c -0.397483,-0.02228 -0.64733,0.06682 -0.635974,0.189322 0.193064,0.200459 0.44291,0.178186 0.635974,-0.189322 z m -1.453653,0.957749 c 0.27256,-0.06683 0.57919,-0.03341 0.61326,-0.02228 0.04543,0.01113 0.04543,0.07796 -0.01135,0.08909 -0.579189,0.07796 -0.601902,0.334099 -0.976671,0.334099 -0.238491,0 -0.51105,-0.245006 -0.40884,-0.59024 0.01135,-0.04455 0.04543,-0.04455 0.05679,0 0.04543,0.133639 0.272559,0.300687 0.726825,0.189322 z m -7.518104,12.584374 c 0.386126,0.478875 0.749539,0.03341 1.249231,0.03341 0.249846,0 0.545119,0.07796 0.601903,0.567967 0,0.02226 0.02271,0.03341 0.04543,0 0.545119,-0.735018 -0.07949,-1.147072 -0.431554,-1.202755 0.07949,-0.06682 0.61326,-0.389781 0.95396,0.08909 0.02271,0.02226 0.05679,0.02226 0.05679,-0.02228 0,-0.924338 -0.715469,-0.991159 -1.226518,-0.59024 -0.102207,-0.367509 0.181706,-0.601377 0.545119,-0.601377 0.04543,0 0.05679,-0.03341 0.03408,-0.05568 -0.635973,-0.668196 -1.112953,0.167049 -1.215162,0.300688 -0.249847,0.334099 -1.15838,-0.289551 -1.521792,-0.657059 0,0 0.806322,-0.824111 0.806322,-1.5814 v -0.133639 c 0,-0.02228 0.01135,-0.03341 0.03408,-0.02228 0.07949,0.04455 0.193064,0.07796 0.295274,0.07796 0.181706,0 0.533762,-0.05568 0.533762,-0.690471 0,-0.04455 -0.02271,-0.04455 -0.04543,-0.02227 -0.09086,0.133641 -0.20442,0.167051 -0.283915,0.167051 -0.64733,0 -1.998772,-2.115957 -3.588704,-2.115957 -0.420196,0 -1.203806,0.289551 -1.601288,0.712742 0.193063,0.111366 0.227134,0.345236 0.20442,0.512286 -0.03408,0.267279 -0.249847,0.400918 -0.465623,0.467737 -0.03407,0.01113 -0.04543,0.03341 0,0.05568 0.806323,0.300688 2.271331,0.846383 2.600674,1.124798 0.397483,0.334099 0.317986,0.968886 0.09085,1.837541 -0.215777,0.835247 -0.692757,0.72388 -0.863107,0.690471 -0.02271,0 -0.03407,0.01113 -0.02271,0.03341 0.20442,0.256143 0.465623,0.345235 0.681399,0.345235 0.420197,0 0.579189,-0.256142 0.794967,-0.256142 0.363412,0 1.124307,0.512285 1.124307,0.902066 0,0.222732 -0.170349,0.412055 -0.397482,0.556831 -0.01135,0.01113 -0.01135,0.02228 0.01135,0.03342 0.147636,0.01113 0.863106,0.06682 0.999385,-0.556832 z m 17.602814,0.545694 c 0.02271,0 0.02271,-0.02226 0.01135,-0.03341 -0.227133,-0.144776 -0.397483,-0.345235 -0.397483,-0.55683 0,-0.389782 0.760896,-0.902065 1.124309,-0.902065 0.215777,0 0.374769,0.256141 0.794966,0.256141 0.215777,0 0.465622,-0.08909 0.681399,-0.345234 0.01135,-0.02228 0.01135,-0.03342 -0.02271,-0.03342 -0.17035,0.02228 -0.64733,0.144777 -0.863107,-0.69047 -0.227133,-0.868656 -0.30663,-1.503442 0.09086,-1.837541 0.329344,-0.278416 1.794351,-0.82411 2.600675,-1.124798 0.04543,-0.02228 0.03407,-0.04455 0,-0.05568 -0.227134,-0.05568 -0.44291,-0.189321 -0.465624,-0.467737 -0.02271,-0.167048 0.01135,-0.400918 0.20442,-0.512285 -0.397483,-0.42319 -1.181092,-0.712742 -1.601288,-0.712742 -1.589933,0 -2.941373,2.115956 -3.588702,2.115956 -0.07949,0 -0.181707,-0.03341 -0.283918,-0.167049 -0.02271,-0.03341 -0.04543,-0.03341 -0.04543,0.02228 0,0.634788 0.340699,0.69047 0.533763,0.69047 0.102207,0 0.215777,-0.03341 0.295273,-0.07796 0.02271,-0.01113 0.03408,0 0.03408,0.02228 v 0.133639 c 0,0.757289 0.806322,1.581399 0.806322,1.581399 -0.363414,0.367509 -1.271946,0.991159 -1.521792,0.65706 -0.113566,-0.133639 -0.579189,-0.968885 -1.215163,-0.300689 -0.02271,0.02226 -0.01135,0.05568 0.03407,0.05568 0.352057,0 0.635973,0.233868 0.54512,0.601376 -0.511049,-0.400918 -1.226519,-0.334097 -1.226519,0.590241 0,0.03341 0.03408,0.04455 0.05679,0.02228 0.3407,-0.478875 0.874463,-0.155913 0.953958,-0.08909 -0.363412,0.05568 -0.988029,0.467737 -0.431552,1.202754 0.02271,0.03341 0.04543,0.02228 0.04543,0 0.05679,-0.478874 0.352057,-0.567967 0.601902,-0.567967 0.499693,0 0.874462,0.456601 1.249232,-0.03341 0.113567,0.634786 0.829037,0.579103 0.999386,0.55683 z M 20.439706,22.846165 c -0.04543,0.06683 -0.215777,0 -0.283916,-0.03341 -0.01135,-0.01113 -0.02271,0 -0.01135,0.01113 0.04543,0.08909 0.204419,0.356373 0.442909,0.356373 0.113566,0 0.261202,-0.06682 0.306629,-0.13364 0,0 0.942603,0.300689 1.396869,0.423192 -0.181706,0.233869 -0.295273,0.52342 -0.317986,0.824109 -0.37477,-0.222732 -1.873848,-1.013432 -1.873848,-1.013432 l -0.465627,0.623647 c -0.07949,0.100221 -0.44291,-0.167048 -0.374769,-0.267279 l 0.352057,-0.478873 c -0.113567,-0.122504 -0.397484,-0.04455 -0.47698,-0.02228 -0.01135,0 -0.02271,0 -0.01135,-0.02227 0.04543,-0.08909 0.215777,-0.378647 0.658686,-0.256144 0,-0.267278 -0.397482,-0.178185 -0.499693,-0.155912 -0.01135,0 -0.01135,0 0,-0.01113 0.113567,-0.111365 0.431553,-0.367508 0.794967,-0.155912 l 0.158993,-0.211596 -0.317986,-0.334097 0.204419,-0.267279 0.227133,0.300688 1.726211,-2.316417 c 0.04543,-0.05568 0.386127,-0.155912 0.51105,-0.178186 0.01135,0.13364 0.02271,0.478876 -0.01135,0.534559 l -1.703498,2.338689 0.363412,0.111365 -0.193062,0.267279 -0.420197,-0.189322 z m 6.053097,-0.378645 c 0,0.211596 0.13628,0.523421 0.420196,0.434328 0.01135,-0.01113 0.02271,0 0.02271,0.01113 -0.04543,0.23387 -0.47698,0.456602 -0.670043,0.178186 -0.170349,0.367509 -0.13628,0.701606 0.23849,0.902066 0.02271,0.01113 0.02271,0.03342 0,0.05568 -0.227133,0.155912 -0.57919,0.122502 -0.738184,-0.189323 -0.306629,0.233869 -0.261202,0.712742 -0.07949,0.879793 0,0 -0.863107,0.501147 -1.635359,0.144776 -0.511049,-0.245005 -0.931245,-0.556831 -1.601288,-0.501149 0.09086,-0.913201 0.556477,-1.158207 1.419582,-1.291847 0.681399,-0.111366 0.772252,-0.423191 0.670043,-0.657059 -0.23849,-0.05568 -0.658687,0.144775 -0.658687,0.144775 -0.07949,-0.122503 0.03408,-0.256142 0.03408,-0.256142 -0.04543,-0.05568 -0.06814,-0.222732 -0.06814,-0.222732 0.47698,0 0.567833,-0.100221 0.567833,-0.100221 0.09086,-0.490011 -0.420196,-0.545693 -0.806323,-0.278414 -0.181706,-0.155914 -0.147635,-0.367509 -0.147635,-0.367509 -0.05679,-0.02227 -0.09086,-0.111366 -0.09086,-0.144776 0,-0.111367 0.567832,-0.434327 0.715468,-0.467738 0.03408,-0.167049 0.23849,-0.389781 0.851749,-0.334098 0.06814,-0.155913 -0.04543,-0.735017 -0.113567,-0.879793 -0.02271,-0.04455 0.01135,-0.07796 0.06814,-0.04455 0.215777,0.133639 0.420196,0.612515 0.567833,0.62365 0,0 0.681399,-0.345234 0.715469,-0.334098 0.03408,0.02228 0.124923,0.757291 0.124923,0.757291 0.09086,0.111366 0.613259,0 0.840392,0.100221 0.05679,0.02227 0.05679,0.06682 0,0.07796 -0.17035,0.03341 -0.715469,0.256141 -0.806322,0.412054 0.30663,0.478875 0.158993,1.158209 0.158993,1.347531 z"
       style="fill:#ffffff;stroke-width:1.12461"
       id="path1" />
  </g>
</svg>
