<?xml version="1.0" encoding="UTF-8" standalone="no"?>
<svg
   id="Layer_1"
   viewBox="0 0 50 50"
   version="1.1"
   width="50"
   height="50"
   xmlns="http://www.w3.org/2000/svg"
   xmlns:svg="http://www.w3.org/2000/svg">
  <defs
     id="defs1">
    <style
       id="style1">.cls-1{fill:#fff;}.cls-2{fill:#154273;}</style>
  </defs>
  <g
     id="Beeldmerk">
    <rect
       class="cls-2"
       width="48"
       height="48"
       id="rect1"
       x="1"
       y="1"
       ry="6.749548"
       style="stroke-width:0.999361" />
    <path
       class="cls-1"
       d="m 25.865171,34.292819 h -0.841702 v -2.33596 h 0.841702 z M 29.676472,23.96542 H 28.83477 v -2.335959 h 0.841702 z M 14.0246,19.927142 c -0.06621,0 -0.501237,0 -0.501237,0.08512 0,0.08512 0.20806,0.04729 0.501237,0.09458 0.680928,0.113489 0.945733,0.453952 1.418599,0.453952 0.425579,0 0.870074,-0.293177 0.699841,-0.907904 -0.02837,-0.10403 -0.08512,-0.07566 -0.10403,-0.0095 -0.06621,0.28372 -0.406664,0.435036 -0.766043,0.435036 -0.444495,0 -0.529611,-0.151316 -1.23891,-0.151316 z m -4.6435455,2.33596 c 0.075658,0.10403 0.8700735,1.134878 -0.3499209,1.532086 -0.056744,0.01892 -0.066202,0.06621 0.00946,0.104031 0.8984459,0.378293 1.3429404,-0.321549 1.3429404,-0.321549 0.453952,1.049763 -0.245891,1.617202 -0.245891,1.617202 0.09457,0.189147 0.52961,0.501239 1.182166,0.652555 0.255347,-0.132402 0.605268,-0.38775 0.747128,-0.7755 0,0 0.17023,0.453951 0.01892,0.888988 1.844179,0.160775 2.496734,-1.314567 3.924789,-1.040306 0.03783,0.0095 0.05675,-0.01892 0.05675,-0.05675 0,-0.907903 -0.557983,-2.572392 -2.317045,-2.912856 -1.759063,-0.340464 -1.286195,-1.05922 -1.286195,-1.05922 0.737672,-0.02837 1.16325,0.293177 1.16325,0.293177 0.132403,-0.226976 -0.05675,-0.453953 -0.05675,-0.453953 0.06621,-0.08512 0.10403,-0.387749 0.10403,-0.387749 -0.832245,0 -1.049763,-0.189147 -1.049763,-0.189147 -0.122945,-0.491781 0.217518,-1.191623 1.456426,-0.444494 0.312092,-0.274261 0.283721,-0.699842 0.283721,-0.699842 0.09458,-0.04729 0.151318,-0.198604 0.151318,-0.255348 0,-0.208061 -0.99302,-0.756586 -1.238911,-0.822787 -0.05675,-0.302635 -0.444492,-0.728214 -1.607744,-0.576897 -0.557981,0.06621 -0.955189,-0.07566 -0.766043,-0.397207 0.02837,-0.05675 -0.06621,-0.06621 -0.113488,-0.0095 -0.122945,0.122945 -0.302634,0.482324 0.170232,0.728213 0.529609,0.274263 0.567439,0.803874 0.576897,0.879532 0.0095,0.113488 -0.122946,0.122945 -0.151319,0.0095 -0.245889,-0.898446 -1.4847982,-1.09705 -2.2130122,-0.624184 0.03783,0.482324 0.5674396,0.803874 0.8417022,0.803874 0.160774,0 0.38775,-0.160775 0.38775,-0.387752 0,-0.10403 0.05674,-0.09458 0.08512,-0.0094 0.113488,0.321549 -0.359378,0.993019 -1.0592203,0.586354 -0.7187566,0.718756 -0.4255796,1.607746 -0.3593783,1.929294 0.1229452,0.586354 -0.1513172,1.153794 -0.6903847,0.888989 -0.028372,-0.0094 -0.056744,-0.01892 -0.056744,0.03783 0.00946,0.349921 0.4823235,0.766044 1.0592203,0.444494 z m 3.9531615,-3.622156 c -0.340464,0.378293 -0.879531,0.293177 -1.021391,-0.331007 0.699841,-0.03783 0.993019,0.02837 1.021391,0.331007 z m 21.430296,1.437513 c -0.359378,0 -0.699841,-0.151317 -0.766043,-0.435036 -0.01892,-0.06621 -0.07566,-0.09458 -0.10403,0.0095 -0.170232,0.624183 0.274263,0.907904 0.699842,0.907904 0.472866,0 0.737672,-0.340464 1.418599,-0.453953 0.302635,-0.04729 0.501238,0 0.501238,-0.09458 0,-0.08512 -0.435037,-0.08512 -0.501238,-0.08512 -0.699842,0 -0.794415,0.151317 -1.23891,0.151317 z m 6.951135,1.721233 c 0,-0.05675 -0.02838,-0.04729 -0.05675,-0.03783 -0.52961,0.264805 -0.81333,-0.302634 -0.690385,-0.888988 0.06621,-0.331007 0.359378,-1.210538 -0.359378,-1.929295 -0.709299,0.406665 -1.182166,-0.264805 -1.059221,-0.586354 0.02837,-0.08512 0.08512,-0.09458 0.08512,0.0094 0,0.226975 0.226975,0.38775 0.38775,0.38775 0.283719,0 0.803872,-0.321549 0.841702,-0.803872 -0.728214,-0.472866 -1.967124,-0.283721 -2.213014,0.624183 -0.02837,0.113488 -0.160775,0.10403 -0.151317,-0.0095 0,-0.07566 0.03783,-0.614726 0.576897,-0.879531 0.482323,-0.24589 0.312091,-0.605268 0.17023,-0.728215 -0.04729,-0.04729 -0.151316,-0.03783 -0.113486,0.0095 0.189147,0.32155 -0.21752,0.46341 -0.756587,0.397209 -1.163251,-0.151318 -1.541544,0.283719 -1.607745,0.576896 -0.255348,0.06621 -1.238909,0.624183 -1.238909,0.822788 0,0.05675 0.05675,0.217518 0.151317,0.255347 0,0 -0.01892,0.416123 0.28372,0.699842 1.229451,-0.747128 1.579372,-0.04729 1.456428,0.444495 0,0 -0.226977,0.170231 -1.059221,0.189145 0,0 0.03783,0.302635 0.104031,0.387751 0,0 -0.198604,0.24589 -0.05675,0.453952 0,0 0.425579,-0.321549 1.163251,-0.293177 0,0 0.472866,0.718756 -1.286196,1.05922 -1.759062,0.340464 -2.317045,1.995496 -2.317045,2.912856 0,0.04729 0.01892,0.06621 0.05675,0.05675 1.428055,-0.264806 2.080612,1.210537 3.92479,1.040305 -0.160775,-0.435037 0.01892,-0.888989 0.01892,-0.888989 0.141858,0.38775 0.49178,0.652556 0.747127,0.775501 0.662013,-0.14186 1.087593,-0.453951 1.182165,-0.652556 0,0 -0.699841,-0.576896 -0.245889,-1.617201 0,0 0.435037,0.699841 1.34294,0.321548 0.07566,-0.03783 0.05675,-0.08512 0.0095,-0.104031 -1.219994,-0.397208 -0.425579,-1.428055 -0.349921,-1.532086 0.576897,0.340464 1.059221,-0.07566 1.059221,-0.444495 z m -4.000449,-3.480295 c -0.132402,0.624183 -0.680927,0.709299 -1.021391,0.331006 0.02837,-0.302634 0.331007,-0.368836 1.021391,-0.331006 z M 24.701919,7.9352555 c 0,0.1513172 0.06621,0.293177 0.113488,0.3688355 0.104031,0.1513173 0.08512,0.2458905 0.03783,0.2931772 -0.04729,0.047286 -0.132403,0.066202 -0.293178,-0.03783 -0.07566,-0.056744 -0.217519,-0.113488 -0.368835,-0.113488 -0.264806,0 -0.397209,0.1702319 -0.397209,0.3215491 0,0.1513172 0.132403,0.321549 0.397209,0.321549 0.151316,0 0.293177,-0.066202 0.368835,-0.1134879 0.151317,-0.1040305 0.24589,-0.085116 0.293178,-0.03783 0.04729,0.047286 -0.01892,0.5863541 -0.08512,1.0119337 -0.435037,0.094574 -0.652555,0.4444939 -0.652555,0.6525559 0,0.529608 0.567439,0.832243 0.898445,1.021389 0.331007,-0.170231 0.898446,-0.482324 0.898446,-1.021389 0,-0.208062 -0.217518,-0.56744 -0.652555,-0.6525559 -0.05675,-0.4161222 -0.132403,-0.9646471 -0.08512,-1.0119337 0.04729,-0.047286 0.132402,-0.066202 0.293177,0.03783 0.07567,0.056744 0.217519,0.1134879 0.368835,0.1134879 0.264805,0 0.397209,-0.1702318 0.397209,-0.321549 0,-0.1513172 -0.132404,-0.3215491 -0.397209,-0.3215491 -0.151316,0 -0.293176,0.066202 -0.368835,0.113488 -0.151317,0.1040306 -0.245891,0.085116 -0.293177,0.03783 -0.04729,-0.047286 -0.06621,-0.1324026 0.03783,-0.2931772 0.05675,-0.075658 0.113488,-0.2175183 0.113488,-0.3688355 0,-0.2648051 -0.170233,-0.3972077 -0.32155,-0.3972077 -0.151316,0 -0.321549,0.1324026 -0.321549,0.3972077 v 0 z m 0.312092,3.9437035 c -0.359378,0 -0.652555,0.293177 -0.652555,0.652555 0,0.359379 0.293177,0.652556 0.652555,0.652556 0.359379,0 0.652556,-0.293177 0.652556,-0.652556 0,-0.359378 -0.293177,-0.652555 -0.652556,-0.652555 z m 0,6.22292 c 2.591308,0 4.047736,0.49178 4.047736,0.49178 0.0094,-1.314568 0.0094,-2.042782 0.756585,-1.929294 -0.406664,-1.09705 1.361855,-1.532086 1.361855,-2.960142 0,-0.945733 -0.67147,-1.049763 -0.860617,-1.049763 -0.586354,0 -0.49178,0.378292 -0.993018,0.378292 -0.05675,0 -0.122946,-0.01892 -0.122946,0.02837 0,0.160774 0.132403,0.444494 0.368835,0.444494 0.312093,0 0.312093,-0.312091 0.539068,-0.312091 0.09458,0 0.245892,0.07566 0.245892,0.397207 0,0.614726 -0.397209,1.286196 -0.870075,1.806349 -0.10403,-0.14186 -0.255348,-0.245891 -0.435037,-0.245891 -0.28372,0 -0.520153,0.293178 -0.520153,0.652556 0,0.132402 0.01892,0.236433 0.06621,0.340464 -0.151316,0.08512 -0.302633,0.132402 -0.397207,0.132402 -0.217517,0 -0.52961,-0.08512 -0.52961,-0.557981 0,-1.040306 1.390227,-1.948209 1.390227,-3.272235 0,-0.633641 -0.416123,-1.248367 -1.305111,-1.248367 -0.945733,0 -0.766043,0.851159 -1.579374,0.851159 -0.03783,0 -0.06621,0.0094 -0.06621,0.04729 0,0.05675 0.14186,0.529611 0.567439,0.529611 0.444494,0 0.576897,-0.775501 0.983563,-0.775501 0.141859,0 0.368835,0.08512 0.368835,0.614726 0,0.406665 -0.208061,1.078135 -0.491781,1.711776 -0.10403,-0.104031 -0.255348,-0.189146 -0.406665,-0.189146 -0.349921,0 -0.605269,0.340463 -0.605269,0.737671 0,0.255348 0.09458,0.501238 0.274263,0.662013 -0.208062,0.264805 -0.416123,0.472865 -0.699843,0.472865 -0.567438,0 -0.803871,-0.321548 -0.803871,-0.671469 0,-0.378293 0.690383,-0.510696 0.690383,-1.09705 0,-0.397208 -0.264804,-0.624184 -0.501237,-0.624184 -0.274262,0 -0.406666,0.170233 -0.435038,0.170233 -0.02837,0 -0.160774,-0.170233 -0.435036,-0.170233 -0.255348,0 -0.501238,0.226976 -0.501238,0.624184 0,0.586354 0.690383,0.728214 0.690383,1.09705 0,0.349921 -0.255346,0.671469 -0.803871,0.671469 -0.28372,0 -0.49178,-0.217517 -0.699843,-0.472865 0.170233,-0.160775 0.274263,-0.406665 0.274263,-0.662013 0,-0.406665 -0.255348,-0.737671 -0.605269,-0.737671 -0.160774,0 -0.302635,0.07566 -0.406665,0.189146 -0.293176,-0.643098 -0.491781,-1.305111 -0.491781,-1.711776 0,-0.520152 0.226976,-0.614726 0.368836,-0.614726 0.397208,0 0.520153,0.775501 0.983562,0.775501 0.416122,0 0.567439,-0.472867 0.567439,-0.529611 0,-0.02837 -0.02837,-0.04729 -0.06621,-0.04729 -0.81333,0 -0.643099,-0.851159 -1.579374,-0.851159 -0.870073,0 -1.30511,0.624183 -1.30511,1.248367 0,1.324026 1.390227,2.231929 1.390227,3.272235 0,0.463408 -0.321549,0.557981 -0.529611,0.557981 -0.10403,0 -0.245891,-0.04729 -0.397207,-0.132402 0.04729,-0.113488 0.06621,-0.208062 0.06621,-0.340464 0,-0.359378 -0.245891,-0.652556 -0.520152,-0.652556 -0.170233,0 -0.321549,0.09458 -0.425581,0.245891 -0.472865,-0.520153 -0.870073,-1.191623 -0.870073,-1.806349 0,-0.312092 0.14186,-0.397207 0.24589,-0.397207 0.226976,0 0.236434,0.312091 0.539068,0.312091 0.236433,0 0.368835,-0.28372 0.368835,-0.444494 0,-0.04729 -0.06621,-0.02837 -0.122944,-0.02837 -0.491782,0 -0.406666,-0.378292 -0.993019,-0.378292 -0.198605,0 -0.860618,0.10403 -0.860618,1.049763 0,1.437513 1.768521,1.863092 1.361855,2.960142 0.747129,-0.10403 0.737672,0.624183 0.756587,1.929294 -0.0094,0 1.44697,-0.49178 4.038277,-0.49178 v 0 z m -4.747576,1.929294 c -0.7093,0.151317 -1.210537,0.302634 -1.437514,0.368835 0.0095,-0.312091 0.122945,-0.605268 0.406665,-0.662013 0.03783,-0.0095 0.04729,-0.05675 0.0095,-0.07566 -0.633641,-0.416123 -0.964647,0.378292 -0.974105,0.406664 -0.226974,-0.01892 -0.567438,0.04729 -0.567438,0.349922 0,0.898446 -2.061697,1.399684 -2.534564,1.475343 0.841703,0.321549 1.191624,1.390226 1.191624,1.390226 0.614726,-0.614725 1.324026,-1.144336 1.484799,-1.144336 0.160775,0 0.226977,0.208061 0.236433,0.321548 0,0.03783 0.03783,0.04729 0.06621,0.01892 0.321549,-0.472866 0.160775,-0.586353 0.132402,-0.728214 -0.01892,-0.10403 0.0095,-0.520152 0.472867,-0.472866 v 6.005401 l -0.245891,0.04729 c -0.104031,0.01892 -0.993019,-0.728214 -1.986038,-1.428055 -1.011934,-0.699843 -1.541544,-0.28372 -2.685881,0.340463 -1.503714,0.813331 -3.016885,0.07567 -3.016885,0.07567 -1.2956539,0.926817 -1.740148,3.60324 -1.740148,3.60324 -0.2648051,0.104031 -0.6903848,0.226976 -1.0875923,0.226976 -0.9930191,0 -1.163251,-0.605269 -1.163251,-0.95519 0,-1.52263 1.9103796,-2.175184 1.9103796,-3.678899 0,-0.368836 -0.1607746,-1.844178 -1.9954955,-1.844178 h -1.636116 c -0.6903847,0 -0.8511593,-0.491781 -0.9551898,-0.680928 -0.03783,-0.07566 -0.1040306,-0.02837 -0.075658,0.02837 0.047286,0.122937 -0.075658,0.321541 -0.075658,0.699834 0,0.614727 0.3593783,0.983563 1.0308484,0.983563 0.3026344,0 0.5958114,-0.08512 0.6809273,-0.141861 0.056744,-0.03783 0.094574,0.01892 0.066202,0.05675 -0.293177,0.340463 -0.3120916,0.98356 -0.1986038,1.125421 0.028372,0.03783 0.066202,0.02837 0.066202,0 0.1607745,-0.643099 0.7660433,-1.248368 1.5793732,-1.248368 1.0024764,0 0.9930191,0.841702 0.9930191,1.049764 0,1.219995 -2.1468127,2.11844 -2.1468127,3.801844 0,1.683403 1.806349,2.071154 2.8466547,1.80635 -0.056744,1.711776 -2.0238675,2.288672 -2.0806115,1.068677 0,-0.05675 -0.047286,-0.06621 -0.075658,0.0095 -0.2458904,0.605268 -0.1418598,1.134879 0.6147262,1.305111 0.047286,0.0095 0.028372,0.03783 -0.018914,0.07566 -0.7565859,0.472866 -0.349921,2.354874 -0.3120918,2.912856 0.056744,0.794415 -0.7376713,0.699842 -0.8038726,0.680927 -0.028372,-0.0095 -0.066202,0 -0.00946,0.06621 0.5674395,0.690384 1.2578241,0.05675 1.2578241,0.05675 0.5201528,0.160774 0.2080612,0.614726 -0.1513172,0.841702 -0.056744,0.03783 -0.047286,0.07566 0.00946,0.07566 0.075658,0.0095 0.8889886,0.07566 1.0403058,-0.576897 0.3593783,0.42558 0.8889884,0.274262 1.0024764,0.217518 0.1513172,-0.07566 0.9268174,-0.359378 0.9930194,0.491781 0,0.05675 0.03783,0.01892 0.0662,-0.0095 0.576896,-0.728214 -0.03783,-1.172709 -0.387751,-1.219995 0.02837,-0.03783 0.482324,-0.42558 0.898446,0.10403 0.02837,0.03783 0.05675,0.04729 0.05675,-0.02837 0.04729,-0.926818 -0.699842,-1.002477 -1.1821653,-0.605269 -0.018914,-0.09458 -0.1891465,-0.614726 0.5390673,-0.595811 0.01891,0 0.04729,-0.02837 0.01891,-0.05675 -0.5674393,-0.605269 -1.0308482,-0.05675 -1.144336,0.07566 -0.2553478,0.302635 -0.8795313,0.170232 -0.9457325,0.170232 0.1986038,-3.196576 3.0074275,-2.061697 3.3951775,-3.612698 0.01892,-0.07566 0.05675,-0.04729 0.05675,-0.01892 0.10403,0.378292 1.059219,0.42558 1.229451,-0.312092 0.0094,-0.04729 0,-0.07566 -0.02837,-0.04729 -0.81333,0.813331 -2.648049,-1.73069 -0.14186,-3.792387 2.137355,-1.759062 4.047735,-0.775501 4.775948,-0.208061 0.03783,0.255348 -0.113487,0.340463 -0.217518,0.368835 -0.03783,0.0095 -0.04729,0.03783 0.0095,0.06621 0.208061,0.07566 0.482323,0.04729 0.624184,-0.132403 0.453951,0.321549 0.06621,0.728214 -0.113489,0.832244 -0.04729,0.02837 -0.02837,0.05675 0.0095,0.06621 0.416123,0.07566 0.766044,-0.34992 0.784958,-0.605269 l 0.06621,0.03783 v 1.815806 c 0,2.58185 2.979058,2.941228 6.251292,5.125871 3.272235,-2.1941 6.241834,-2.544021 6.241834,-5.125871 V 28.85489 l 0.06621,-0.03783 c 0.01892,0.245891 0.359378,0.680929 0.78496,0.605269 0.03783,-0.0095 0.05675,-0.03783 0.0095,-0.06621 -0.189146,-0.113488 -0.586355,-0.510695 -0.113488,-0.832244 0.132403,0.198604 0.416123,0.217518 0.624183,0.132403 0.05675,-0.01892 0.04729,-0.05675 0.0094,-0.06621 -0.09458,-0.02837 -0.255349,-0.113487 -0.217518,-0.368835 0.728214,-0.586354 2.638592,-1.560458 4.775949,0.208061 2.50619,2.071155 0.671469,4.605718 -0.14186,3.792387 -0.03783,-0.03783 -0.03783,0 -0.02837,0.04729 0.170231,0.747128 1.125421,0.690384 1.229451,0.312092 0.0094,-0.02837 0.04729,-0.05675 0.05675,0.01892 0.38775,1.551001 3.196575,0.416122 3.39518,3.612698 -0.05675,0.0095 -0.690387,0.122945 -0.945732,-0.170232 -0.104033,-0.122946 -0.576897,-0.680927 -1.144338,-0.07566 -0.03783,0.03783 0,0.05675 0.01892,0.05675 0.728215,-0.01892 0.576897,0.491781 0.539068,0.595811 -0.482324,-0.397208 -1.229453,-0.321549 -1.182165,0.605269 0,0.06621 0.02837,0.06621 0.05675,0.02837 0.416123,-0.52961 0.870075,-0.141859 0.898446,-0.10403 -0.340465,0.04729 -0.964647,0.491781 -0.387751,1.219995 0.02837,0.02837 0.05675,0.06621 0.06621,0.0095 0.07566,-0.851159 0.832245,-0.586353 0.993019,-0.491781 0.104031,0.05675 0.643098,0.217519 1.002476,-0.217518 0.14186,0.652555 0.964648,0.586354 1.040306,0.576897 0.05675,0 0.05675,-0.03783 0.0095,-0.07566 -0.349921,-0.236434 -0.680927,-0.680928 -0.151317,-0.841702 0,0 0.699843,0.63364 1.257825,-0.05675 0.04729,-0.05675 0.01892,-0.07566 -0.0094,-0.06621 -0.06621,0.01892 -0.860617,0.113488 -0.803872,-0.680927 0.03783,-0.557982 0.444493,-2.43999 -0.312092,-2.912856 -0.04729,-0.02837 -0.06621,-0.05675 -0.01892,-0.07566 0.756586,-0.160775 0.851159,-0.699843 0.614726,-1.305111 -0.02837,-0.07567 -0.07566,-0.05675 -0.07566,-0.0095 -0.05675,1.219995 -2.004953,0.643099 -2.080611,-1.068677 1.049763,0.274261 2.846655,-0.09458 2.846655,-1.80635 0,-1.711776 -2.146813,-2.581849 -2.146813,-3.801844 0,-0.208062 -0.0095,-1.049764 0.993019,-1.049764 0.81333,0 1.418599,0.614727 1.579373,1.248368 0.0095,0.02837 0.03783,0.03783 0.06621,0 0.113489,-0.151318 0.09458,-0.784958 -0.198602,-1.125421 -0.02837,-0.02837 0,-0.09458 0.06621,-0.05675 0.08512,0.05675 0.378293,0.141861 0.680927,0.141861 0.671471,0 1.030849,-0.368836 1.030849,-0.983563 0,-0.378293 -0.132403,-0.576897 -0.07566,-0.699842 0.02837,-0.05675 -0.04729,-0.09458 -0.07566,-0.02837 -0.09458,0.198604 -0.274262,0.680927 -0.955189,0.680927 h -1.636385 c -1.834721,0 -1.995496,1.4848 -1.995496,1.844178 0,1.503715 1.91038,2.156271 1.91038,3.6789 0,0.359378 -0.189147,0.95519 -1.163251,0.95519 -0.406666,0 -0.832244,-0.113488 -1.087593,-0.226976 0,0 -0.435036,-2.666966 -1.740148,-3.60324 0,0 -1.513171,0.737671 -3.016886,-0.07567 -1.144336,-0.624183 -1.69286,-1.040305 -2.695337,-0.340464 -1.002476,0.699842 -1.882007,1.446972 -1.986038,1.428056 l -0.245891,-0.04729 v -6.005402 c 0.463409,-0.04729 0.491781,0.368836 0.472866,0.472867 -0.02837,0.132403 -0.170232,0.255348 0.132403,0.728214 0.02837,0.03783 0.05675,0.01892 0.06621,-0.01892 0.0095,-0.113488 0.07566,-0.32155 0.236433,-0.32155 0.160774,0 0.870073,0.529611 1.4848,1.144338 0,0 0.349921,-1.059221 1.191624,-1.390228 -0.472867,-0.07566 -2.534564,-0.576897 -2.534564,-1.475343 0,-0.302633 -0.340464,-0.368836 -0.56744,-0.34992 -0.0095,-0.02837 -0.34992,-0.822787 -0.974104,-0.406665 -0.02837,0.01892 -0.02837,0.06621 0.0094,0.07566 0.28372,0.06621 0.397207,0.349921 0.406664,0.662013 -0.605269,-0.189146 -3.158746,-0.898446 -6.18509,-0.898446 -1.475342,0 -2.827739,0.170232 -3.905875,0.368836 V 21.951 h -0.841702 v -1.910379 0 M 14.677132,41.376345 C 14.450099,41.291235 14.30824,41.139921 14.30824,40.846744 V 39.55109 c -0.368836,-0.122945 -1.38077,-0.510697 -3.404637,-0.510697 -1.6834025,0 -2.2035554,0.378295 -2.2319274,0.510697 l -0.4444942,2.458904 c 0,0 0.6809273,-0.624184 3.1209156,-0.463409 2.931771,0.189146 5.967572,1.919837 5.967572,0.06621 v -1.087593 c -2.288672,0.0095 -2.629137,0.747128 -2.629137,0.851159 z m 18.044573,-0.851159 v 1.087592 c 0,1.844178 3.035802,0.113488 5.967573,-0.06621 2.43999,-0.151317 3.120917,0.463408 3.120917,0.463408 l -0.444548,-2.46835 c -0.01892,-0.132402 -0.557983,-0.510695 -2.231929,-0.510695 -2.023868,0 -3.026345,0.387751 -3.404637,0.510695 v 1.295654 c 0,0.293178 -0.14186,0.435037 -0.368836,0.52961 0.0095,-0.10403 -0.331007,-0.841701 -2.629136,-0.841701 z m -7.707639,-1.115963 c 4.728662,0 9.523526,0.245889 10.14771,0.964646 0.04729,0.05675 0.06621,0 0.06621,-0.04729 v -2.506191 c 0,-0.728213 -4.955638,-1.153793 -10.223368,-1.153793 -5.267729,0 -10.223368,0.42558 -10.223368,1.153793 v 2.506191 c 0,0 0.01892,0.09458 0.06621,0.04729 0.652556,-0.709299 5.447419,-0.964646 10.166625,-0.964646 z m -4.208508,-11.802741 -0.472867,-0.122946 -0.03783,0.05675 -0.557982,-0.245891 h 0.49178 c 0.04729,0 0.04729,-0.02837 0.02837,-0.04729 -0.226974,-0.226975 -0.425578,-0.416122 -0.425578,-0.416122 0,0 0.226976,0.08512 0.539067,0.208061 0.03783,0.0095 0.04729,-0.0095 0.02837,-0.03783 -0.151317,-0.226975 -0.368835,-0.529609 -0.368835,-0.529609 0,0 0.444494,0.302634 0.529609,0.359378 0.02837,0.01892 0.04729,0 0.03783,-0.02837 -0.113488,-0.293178 -0.255349,-0.633641 -0.255349,-0.633641 l 0.482325,0.463408 c 0,0 0.04729,0.0095 0.03783,-0.01892 -0.04729,-0.226975 -0.132402,-0.63364 -0.132402,-0.63364 l 0.359378,0.520153 c 0,0 0.04729,0.01892 0.04729,-0.0095 0,-0.10403 0.0095,-0.576897 0.0095,-0.576897 0,0 0.151317,0.349921 0.226975,0.520153 0.01892,0.03783 0.03783,0.03783 0.05675,-0.0095 0.01892,-0.05675 0.189146,-0.444495 0.189146,-0.444495 l 0.01892,0.605268 -0.07566,0.01892 -0.09458,0.718756 c 0.709299,-0.160774 1.598287,-1.390226 2.279215,-1.390226 0.81333,0 1.106507,0.95519 2.600764,0.463409 0.378293,0.567439 0.510695,1.049764 0.662013,1.721233 0.586355,0.539068 1.390226,0.359378 1.390226,-0.217519 0,-0.7755 -0.841702,-0.926817 -0.841702,-1.740148 0,-0.359378 0.255349,-0.87953 0.945733,-0.87953 0.368835,0 0.898446,0.151317 1.210538,0.151317 0.368835,0 0.444493,-0.264806 0.482323,-0.378293 0.02837,-0.07566 0.132402,-0.05675 0.122945,0.0095 -0.0095,0.07566 0.03783,0.189146 0.03783,0.359378 0,0.510695 -0.747129,0.586354 -0.832244,0.510695 -0.03783,-0.02837 -0.06621,0.0095 -0.03783,0.03783 0.113488,0.08512 0.08512,0.397207 -0.04729,0.59581 -0.01892,0.01892 -0.03783,0.01892 -0.03783,0 -0.07566,-0.368836 -0.510695,-0.822787 -0.888989,-0.822787 -0.132402,0 -0.416122,0.07566 -0.416122,0.406665 0,0.453952 0.926819,0.879531 0.926819,1.83472 0,0.955191 -0.983562,1.229454 -1.967125,0.983563 0.02837,0.945732 1.437514,1.494257 1.465886,0.822788 0,-0.04729 0.02837,-0.01892 0.03783,0 0.208061,0.293176 0.113489,0.501237 -0.151317,0.624182 0.245891,0.104031 0.293177,0.605269 0.359378,0.898446 0.10403,0.444494 0.576897,0.198604 0.605269,0.189147 0.02837,-0.01892 0.03783,0 0.01892,0.02837 -0.170232,0.453951 -0.652555,0.283719 -0.652555,0.283719 -0.24589,0.170232 0.04729,0.331005 0.274263,0.397208 0.02837,0.0095 0.02837,0.02837 0.0094,0.04729 -0.160775,0.05675 -0.510696,0.170232 -0.690384,-0.122946 -0.122946,0.312092 -0.387751,0.302634 -0.482324,0.302634 -0.189147,0 -0.302635,0.189148 -0.264805,0.435039 0,0.01892 -0.0095,0.02837 -0.02838,0.01892 -0.42558,-0.28372 -0.189147,-0.624184 -0.0095,-0.7093 -0.02837,-0.01892 -0.331006,-0.14186 -0.453951,0.208061 -0.0095,0.02837 -0.02837,0.02837 -0.03783,0 -0.189147,-0.501238 0.226977,-0.652555 0.510696,-0.520152 -0.01892,-0.06621 -0.170232,-0.321549 -0.56744,-0.236434 -0.01892,0.0095 -0.02837,0 -0.01892,-0.02837 0.06621,-0.151318 0.255348,-0.378293 0.614727,-0.151318 0.189146,0.113489 0.49178,-0.04729 0.520152,-0.06621 -0.633641,-1.248367 -1.844178,-0.208061 -2.127898,-1.182165 -0.0095,-0.01892 -0.02837,-0.03783 -0.04729,0.01892 -0.06621,0.20806 -0.605269,0.226975 -0.699842,-0.189147 -0.0095,-0.02837 0,-0.03783 0.02837,-0.01892 0.07566,0.07567 0.24589,0.141861 0.463409,-0.160774 0.14186,-0.217519 0.160775,-0.491781 0.160775,-0.680927 0,-0.756585 -0.756587,-2.042782 -1.938752,-2.042782 -0.747128,0 -1.551002,0.293177 -2.15627,0.728214 l 0.557982,0.122944 c -0.04729,0.567441 -0.595811,0.888989 -1.087593,0.74713 l 0.08512,-0.643098 c -0.08512,0.02837 -0.302633,0.10403 -0.416122,0.274262 -0.0094,0.0095 -0.02837,0.0095 -0.02837,-0.0095 -0.09458,-0.368836 0.208062,-0.557982 0.293177,-0.595811 0,0 0,-0.0094 -0.0095,-0.0094 -0.274262,-0.0095 -0.416121,0.189146 -0.463408,0.255348 -0.0094,0.0095 -0.01892,0.0095 -0.01892,0 0.02837,-0.07566 -0.01892,-0.264804 0.10403,-0.397208 v 0 z m 1.655032,4.350369 c -0.217519,0.264806 -0.397208,0.0095 -0.680927,0.0095 -0.264806,0 -0.312093,0.226977 -0.312093,0.312092 0,0.01892 -0.0095,0.01892 -0.01892,0.0094 -0.302634,-0.406665 0.03783,-0.633641 0.236433,-0.662013 -0.02837,-0.02837 -0.321549,-0.226976 -0.501238,0.04729 -0.0095,0.01892 -0.02837,0.0095 -0.02837,-0.0094 -0.0094,-0.501237 0.387751,-0.539068 0.662013,-0.321549 0.04729,-0.198604 -0.07566,-0.321549 -0.293178,-0.331007 -0.02837,0 -0.02837,-0.01892 -0.01892,-0.02837 0.08512,-0.09458 0.170232,-0.132402 0.264805,-0.132402 0.283719,0 0.32155,0.359379 0.501238,0.359379 0.274263,0 0.671471,-0.368836 0.699843,-0.406666 -0.0095,-0.01892 -0.274263,-0.737672 -0.226977,-1.163251 0,-0.01892 -0.0094,-0.01892 -0.01892,-0.0095 -0.132402,0.07566 -0.463408,0.06621 -0.463408,-0.340464 0,-0.02837 0.0094,-0.03783 0.02837,-0.0094 0.14186,0.208062 0.38775,-0.02837 0.501239,-0.160774 0.122944,-0.14186 0.822786,-1.153794 1.749604,-1.153794 0.208061,0 0.463409,0.113489 0.680927,0.264805 -0.321548,0.38775 0,0.756586 0.236433,0.7093 0.02837,-0.0095 0.02837,0.01892 0.0095,0.02837 -1.219995,0.453952 -1.76852,0.643098 -1.76852,1.673947 0,0.52961 0.189147,0.832245 0.491781,0.756585 0.01892,-0.0094 0.02837,0 0.0095,0.01892 -0.113489,0.132404 -0.245891,0.189147 -0.349921,0.189147 -0.255348,0 -0.302634,-0.132402 -0.435037,-0.132402 -0.132402,0 -0.595812,0.274261 -0.595812,0.49178 0,0.08512 0.05675,0.208062 0.217519,0.302635 0.0094,0.0095 0,0.01892 0,0.01892 -0.132403,0 -0.491781,0.02837 -0.576897,-0.312091 v 0 z m 3.21549,-9.949106 c -0.378293,-0.01892 -0.633641,0.05675 -0.614726,0.189147 0.189147,0.198603 0.425579,0.170232 0.614726,-0.189147 z m -1.409142,0.936276 c 0.274263,-0.06621 0.567441,-0.03783 0.605269,-0.02837 0.03783,0.0094 0.03783,0.07566 -0.0095,0.08512 -0.56744,0.06621 -0.595812,0.331007 -0.95519,0.331007 -0.236433,0 -0.491781,-0.245891 -0.397207,-0.595812 0.0095,-0.04729 0.04729,-0.04729 0.05675,0 0.03783,0.151318 0.264806,0.321549 0.699842,0.208062 z m -7.310511,12.483668 c 0.368836,0.472866 0.728214,0.02837 1.219994,0.02837 0.245891,0 0.529611,0.07566 0.586355,0.56744 0,0.02837 0.01892,0.02837 0.04729,0 0.52961,-0.728214 -0.07566,-1.134879 -0.42558,-1.191623 0.07566,-0.06621 0.595813,-0.387751 0.936276,0.08512 0.01892,0.02837 0.05675,0.01892 0.05675,-0.01892 0,-0.926817 -0.690385,-0.993018 -1.191624,-0.595811 -0.09458,-0.359378 0.170232,-0.595811 0.520153,-0.595811 0.03783,0 0.05675,-0.02837 0.03783,-0.04729 -0.624184,-0.662012 -1.078135,0.170232 -1.182166,0.302635 -0.24589,0.331006 -1.125422,-0.293178 -1.4848,-0.662013 0,0 0.775501,-0.813331 0.775501,-1.560459 0,-0.04729 -0.0094,-0.104031 -0.0094,-0.132403 0,-0.01892 0.0094,-0.02837 0.02837,-0.01892 0.07566,0.04729 0.189147,0.07566 0.293177,0.07566 0.170233,0 0.510697,-0.05675 0.510697,-0.690385 0,-0.04729 -0.01892,-0.04729 -0.03783,-0.01892 -0.09458,0.132402 -0.198605,0.160774 -0.274263,0.160774 -0.633641,0 -1.938752,-2.099527 -3.49921,-2.099527 -0.406665,0 -1.172708,0.293178 -1.551001,0.709299 0.189147,0.104032 0.226975,0.340464 0.208061,0.501239 -0.02837,0.264806 -0.245891,0.397208 -0.453952,0.453952 -0.03783,0.0094 -0.03783,0.03783 0,0.05675 0.784959,0.302634 2.203557,0.832245 2.534563,1.115965 0.378294,0.331007 0.312092,0.955189 0.08512,1.815806 -0.217519,0.822787 -0.671469,0.718757 -0.841701,0.690385 -0.02837,0 -0.02837,0.0094 -0.01892,0.02837 0.20806,0.255348 0.444494,0.340463 0.662012,0.340463 0.406665,0 0.567439,-0.255347 0.766044,-0.255347 0.34992,0 1.097049,0.501238 1.097049,0.888988 0,0.217518 -0.160775,0.416123 -0.38775,0.557982 -0.0095,0.0095 -0.0095,0.02838 0.0094,0.02838 0.160774,0.02837 0.851159,0.08512 0.99302,-0.529611 v 0 z m 17.117757,0.539068 c 0,0 0.02837,-0.01892 0.0095,-0.02838 -0.217517,-0.14186 -0.38775,-0.340464 -0.38775,-0.557982 0,-0.38775 0.737671,-0.888988 1.09705,-0.888988 0.217518,0 0.359378,0.255347 0.766043,0.255347 0.217518,0 0.453952,-0.08512 0.662013,-0.340463 0.01892,-0.01892 0.0095,-0.03783 -0.01892,-0.02837 -0.160775,0.02837 -0.633641,0.132402 -0.841702,-0.690385 -0.226976,-0.860617 -0.302634,-1.4848 0.08512,-1.815806 0.32155,-0.28372 1.749606,-0.813331 2.534564,-1.115966 0.03783,-0.01892 0.03783,-0.04729 0,-0.05675 -0.217519,-0.05675 -0.42558,-0.198603 -0.453952,-0.453951 -0.01892,-0.160775 0.01892,-0.387751 0.208061,-0.501239 -0.38775,-0.416122 -1.153793,-0.709299 -1.560459,-0.709299 -1.551,0 -2.865569,2.099527 -3.49921,2.099527 -0.07566,0 -0.189146,-0.02838 -0.274262,-0.160775 -0.01892,-0.02837 -0.03783,-0.02837 -0.03783,0.01892 0,0.633641 0.340464,0.690385 0.510696,0.690385 0.09458,0 0.217518,-0.02837 0.293177,-0.07566 0.01892,-0.0095 0.02837,0 0.02837,0.01892 0,0.02837 -0.0095,0.08512 -0.0095,0.132403 0,0.747128 0.775502,1.560459 0.775502,1.560459 -0.349921,0.368835 -1.229454,0.983561 -1.4848,0.662012 -0.104032,-0.132403 -0.56744,-0.964647 -1.182166,-0.302634 -0.01892,0.02837 -0.0095,0.04729 0.03783,0.04729 0.349921,0 0.624185,0.236433 0.520154,0.595811 -0.501239,-0.397206 -1.191623,-0.331006 -1.191623,0.595813 0,0.03783 0.03783,0.04729 0.05675,0.01892 0.331006,-0.472867 0.851158,-0.151318 0.926817,-0.08512 -0.349921,0.04729 -0.95519,0.463409 -0.425579,1.191623 0.01892,0.02837 0.03783,0.02837 0.04729,0 0.05675,-0.472866 0.349921,-0.56744 0.586354,-0.56744 0.482324,0 0.841702,0.444495 1.219994,-0.02837 0.151319,0.624184 0.841703,0.56744 1.011935,0.529611 z M 21.543173,23.861388 c -0.04729,0.06621 -0.217519,0 -0.274262,-0.02837 -0.0095,-0.0095 -0.01892,0 -0.0095,0.0095 0.03783,0.08512 0.198604,0.349922 0.42558,0.349922 0.104031,0 0.264805,-0.05675 0.302634,-0.132403 0,0 0.907904,0.302634 1.361855,0.416122 -0.170232,0.236434 -0.28372,0.510696 -0.312092,0.813331 -0.359379,-0.226976 -1.815807,-1.002477 -1.815807,-1.002477 l -0.444493,0.624183 c -0.07566,0.09458 -0.435038,-0.160775 -0.359378,-0.264805 l 0.340463,-0.472867 c -0.113489,-0.113487 -0.38775,-0.04729 -0.463409,-0.01892 -0.0095,0 -0.01892,0 -0.0095,-0.01892 0.04729,-0.09458 0.217519,-0.378293 0.643099,-0.255348 0,-0.264804 -0.387751,-0.170231 -0.491781,-0.141859 -0.0094,0 -0.01892,0 -0.0094,-0.0095 0.10403,-0.113488 0.425579,-0.368836 0.775499,-0.151318 l 0.151318,-0.217518 -0.312092,-0.331007 0.198604,-0.274262 0.226976,0.293177 1.683404,-2.29813 c 0.03783,-0.05675 0.378293,-0.151318 0.491781,-0.189146 0.0095,0.122944 0.02837,0.472866 -0.0095,0.52961 l -1.655032,2.317044 0.349921,0.113488 -0.198604,0.274262 -0.406665,-0.198603 -0.170232,0.255347 v 0 z m 5.891914,-0.378292 c 0,0.217519 0.122944,0.520153 0.406664,0.425581 0.0095,-0.0095 0.02837,0 0.01892,0.0094 -0.03783,0.236432 -0.463408,0.444494 -0.652555,0.170231 -0.170232,0.359378 -0.122945,0.699842 0.236433,0.888989 0.01892,0.0094 0.01892,0.03783 0,0.05675 -0.226975,0.151316 -0.567439,0.122944 -0.718757,-0.189147 -0.302634,0.226976 -0.264805,0.709299 -0.07566,0.870074 0,0 -0.832245,0.49178 -1.588831,0.14186 -0.501238,-0.245891 -0.907902,-0.557982 -1.560457,-0.491781 0.08512,-0.907903 0.539066,-1.144337 1.380768,-1.286196 0.671471,-0.104031 0.747129,-0.416122 0.662013,-0.652556 -0.226975,-0.05675 -0.643098,0.14186 -0.643098,0.14186 -0.07566,-0.122945 0.02837,-0.255348 0.02837,-0.255348 -0.03783,-0.04729 -0.05675,-0.217519 -0.05675,-0.217519 0.463408,0 0.557982,-0.10403 0.557982,-0.10403 0.08512,-0.482323 -0.406665,-0.529611 -0.784959,-0.274262 -0.170231,-0.151317 -0.141858,-0.359379 -0.141858,-0.359379 -0.04729,-0.02837 -0.08512,-0.10403 -0.08512,-0.141859 0,-0.113488 0.557982,-0.42558 0.699841,-0.46341 0.03783,-0.160774 0.236434,-0.38775 0.822788,-0.331006 0.06621,-0.151316 -0.04729,-0.728213 -0.113489,-0.870073 -0.01892,-0.04729 0.0095,-0.06621 0.05675,-0.03783 0.208061,0.122946 0.406665,0.614726 0.557982,0.624184 0,0 0.662013,-0.349922 0.690385,-0.331006 0.02837,0.01892 0.122945,0.756585 0.122945,0.756585 0.08512,0.10403 0.605268,0 0.822787,0.09458 0.05675,0.02837 0.05675,0.06621 0,0.07566 -0.160775,0.02837 -0.699842,0.264805 -0.784957,0.406665 0.312092,0.453952 0.160774,1.125422 0.160774,1.314568 v 0 z"
       id="path1"
       style="stroke-width:0.94573" />
  </g>
</svg>
